<svg width="40" height="40" viewBox="0 0 40 40" fill="none" xmlns="http://www.w3.org/2000/svg">
<g clip-path="url(#clip0)">
<path d="M39.0617 13.75H34.3844L33.0844 10.5C31.7484 7.15859 28.5602 5 24.9609 5H15.0391C11.4406 5 8.25158 7.15859 6.91486 10.5L5.61486 13.75H0.938302C0.328146 13.75 -0.11951 14.3234 0.0289273 14.9148L0.497677 16.7898C0.601583 17.207 0.976583 17.5 1.40705 17.5H2.97502C1.9258 18.4164 1.25002 19.7484 1.25002 21.25V25C1.25002 26.2594 1.73127 27.3961 2.50002 28.2758V32.5C2.50002 33.8805 3.61955 35 5.00002 35H7.50002C8.88048 35 10 33.8805 10 32.5V30H30V32.5C30 33.8805 31.1195 35 32.5 35H35C36.3805 35 37.5 33.8805 37.5 32.5V28.2758C38.2687 27.3969 38.75 26.2602 38.75 25V21.25C38.75 19.7484 38.0742 18.4164 37.0258 17.5H38.5937C39.0242 17.5 39.3992 17.207 39.5031 16.7898L39.9719 14.9148C40.1195 14.3234 39.6719 13.75 39.0617 13.75ZM11.557 12.357C12.1266 10.9336 13.5055 10 15.0391 10H24.9609C26.4945 10 27.8734 10.9336 28.443 12.357L30 16.25H10L11.557 12.357ZM7.50002 24.9844C6.00002 24.9844 5.00002 23.9875 5.00002 22.4922C5.00002 20.9969 6.00002 20 7.50002 20C9.00001 20 11.25 22.243 11.25 23.7383C11.25 25.2336 9.00001 24.9844 7.50002 24.9844ZM32.5 24.9844C31 24.9844 28.75 25.2336 28.75 23.7383C28.75 22.243 31 20 32.5 20C34 20 35 20.9969 35 22.4922C35 23.9875 34 24.9844 32.5 24.9844V24.9844Z" fill="#172AD9"/>
</g>
<defs>
<clipPath id="clip0">
<rect width="40" height="40" fill="white"/>
</clipPath>
</defs>
</svg>
